<svg id="Layer_1" data-name="Layer 1" xmlns="http://www.w3.org/2000/svg" viewBox="0 0 1082.35 171.12"><defs><style>.cls-1{fill:#fff;}</style></defs><path class="cls-1" d="M919,1.45C864.49.41,810,0,755.55,0L714.7.08,673.86.33l-20.42.2-10.21.1L638.12.7a15.93,15.93,0,0,0-1.61.09l-1.42.15c-.93.12-1.84.25-2.75.4a81.88,81.88,0,0,0-20.92,6.32,62,62,0,0,0-18.26,12.57,51.37,51.37,0,0,0-12,18.86l-.49,1.31-.4,1.33c-.26.89-.54,1.78-.78,2.67l-.59,2.7-.29,1.35-.2,1.36-.4,2.72-.06.71H561.16V51.53c0-1.78,0-3.69.07-5.23a57.58,57.58,0,0,1,3.7-19,60.37,60.37,0,0,1,4-8.85l1.23-2.09c.43-.68.86-1.36,1.31-2s.9-1.32,1.37-1.93c.23-.32.47-.62.7-.91l.34-.42.27-.31,9-10.63-13.79,0L541.18,0,512.93.1l-13.76,0,9,10.6.27.31.34.42c.23.3.47.59.7.91.47.62.92,1.28,1.38,1.93s.87,1.35,1.3,2l1.23,2.1a61,61,0,0,1,4.06,8.85,57.53,57.53,0,0,1,3.7,19c.09,1.54.06,3.45.07,5.23v1.71H504.38c0-.24,0-.47-.07-.71l-.4-2.72-.2-1.36-.29-1.35-.59-2.7c-.24-.89-.52-1.78-.78-2.67l-.4-1.33-.49-1.31a51.37,51.37,0,0,0-12-18.86A61.75,61.75,0,0,0,470.93,7.66,81.88,81.88,0,0,0,450,1.34c-.91-.15-1.82-.28-2.75-.4L445.84.79A15.93,15.93,0,0,0,444.23.7l-5.1-.07L428.92.53,408.5.33,367.65.08,326.8,0C272.34,0,217.86.41,163.39,1.45S54.45,3.81,0,6.5c54.45,2.69,108.87,4.09,163.3,5.05S272.14,13,326.57,13L355,12.94c22.87,2.38,46.91,17.85,46.91,17.85-1.86-7.46,3.25-16.31,4.36-18.12h2l20.42-.19,10.21-.11,5.1-.07a9.05,9.05,0,0,1,.94,0l1.12.1c.76.07,1.54.16,2.31.26a72.47,72.47,0,0,1,18.21,5,51.42,51.42,0,0,1,15.59,9.86,41.87,41.87,0,0,1,10.3,15l.44,1.07.37,1.1c.24.73.51,1.46.74,2.2l.58,2.27.29,1.13.22,1.16.43,2.32.32,2.4c.25,1.6.35,3.2.49,4.8.42,6.37-.08,12.78-2.25,18.38a21.4,21.4,0,0,1-11.9,12.33,27.43,27.43,0,0,1-8.92,2,35.47,35.47,0,0,1-9.38-.9A33.39,33.39,0,0,1,455,89.2,25.27,25.27,0,0,1,447.93,83a20.75,20.75,0,0,1-4-8.48,17.9,17.9,0,0,1,.68-9.44,23.86,23.86,0,0,1,2.13-4.41,28.92,28.92,0,0,1,3-4,44.27,44.27,0,0,1,7.68-6.61A41.26,41.26,0,0,0,449,56a29.27,29.27,0,0,0-3.54,3.83,25.88,25.88,0,0,0-2.74,4.53A20.21,20.21,0,0,0,441.13,75,24.12,24.12,0,0,0,445,85.12a27.94,27.94,0,0,0,7.67,7.77,38.33,38.33,0,0,0,9.84,4.63,40.71,40.71,0,0,0,10.79,1.75,33.6,33.6,0,0,0,11.08-1.68,27.05,27.05,0,0,0,9.86-6,29.65,29.65,0,0,0,6.65-9.41,42.25,42.25,0,0,0,3.16-10.75,55,55,0,0,0,.73-8.24h16.53l.07,4.48c.16,6.52.35,13,.67,19.55l-8.57,8.43-10.19,10.13-2.31,2.3,1.55,2.52q4.92,8,9.92,15.86l10,15.38,9.66,14.85L536.7,164l4.48,7.14-4.33-8.46-4.18-8.36c-2.75-5.5-5.35-11-7.95-16.36l-7.65-15.81c-2.06-4.19-4.13-8.32-6.22-12.44l8.68-7.45,10.85-9.42,1.56-1.36V89.07c0-7,.16-14.21.36-21.32l.61-21.55a69.44,69.44,0,0,0-3.8-23.08,72.72,72.72,0,0,0-4.4-10.18l16.46.06,16.44-.06a73.23,73.23,0,0,0-4.4,10.18,69.4,69.4,0,0,0-3.8,23.08L550,67.75c.2,7.11.32,14.27.35,21.32v2.4L552,92.83l10.85,9.42,8.67,7.45q-3.12,6.17-6.21,12.42l-7.64,15.82c-2.6,5.31-5.21,10.85-8,16.36l-4.18,8.36-4.32,8.46,4.48-7.14,4.63-7.24L560,141.9l10-15.38q5-7.84,9.93-15.86l1.56-2.54-2.32-2.3-10.2-10.14-8.56-8.42c.32-6.55.52-13,.68-19.54l.06-4.48h16.51a55,55,0,0,0,.73,8.24,43.07,43.07,0,0,0,3.16,10.75,29.81,29.81,0,0,0,6.65,9.41,27,27,0,0,0,9.87,6,33.5,33.5,0,0,0,11.07,1.68,40.78,40.78,0,0,0,10.8-1.75,38.43,38.43,0,0,0,9.83-4.63,27.81,27.81,0,0,0,7.67-7.77A24.12,24.12,0,0,0,641.22,75a20.11,20.11,0,0,0-1.61-10.61,25.24,25.24,0,0,0-2.73-4.53A30.05,30.05,0,0,0,633.33,56a41.26,41.26,0,0,0-8.4-5.89,44.27,44.27,0,0,1,7.68,6.61,28.15,28.15,0,0,1,3,4,23.86,23.86,0,0,1,2.13,4.41,17.8,17.8,0,0,1,.68,9.44,20.75,20.75,0,0,1-4,8.48,25.27,25.27,0,0,1-7.07,6.18,33.46,33.46,0,0,1-8.83,3.46,35.59,35.59,0,0,1-9.39.9,27.43,27.43,0,0,1-8.92-2,21.38,21.38,0,0,1-11.89-12.33c-2.18-5.6-2.67-12-2.25-18.38.13-1.6.23-3.2.48-4.8l.32-2.4.44-2.32.21-1.16.29-1.13.58-2.27c.23-.74.5-1.47.74-2.2l.37-1.1.45-1.07a41.72,41.72,0,0,1,10.29-15,51.47,51.47,0,0,1,15.6-9.86,72.28,72.28,0,0,1,18.2-5c.78-.1,1.55-.19,2.31-.26l1.12-.1a9.12,9.12,0,0,1,.94,0l5.1.07,10.21.11,20.42.19s6.66,10.11,4.57,18.45c0,0,28.3-18.21,52.69-18.16l24.39,0q81.63,0,163.27-1.44c54.42-1,108.85-2.36,163.29-5.05C1027.9,3.81,973.44,2.4,919,1.45Z"/></svg>