<svg xmlns="http://www.w3.org/2000/svg" viewBox="0 0 849 192.85">
  <title>logo-horiz</title>
  <g id="Layer_2" data-name="Layer 2">
    <g id="Layer_1-2" data-name="Layer 1">
      <path d="M99.5,55.71c0-1.48-1.73-1.48-2.56-1.48-2.82,0-7.8.19-10.77.31l-2.2.08-1.76-.06c-2.83-.11-8.72-.33-13.2-.33-.83,0-2.55,0-2.55,1.48A1.33,1.33,0,0,0,68,56.92a24.41,24.41,0,0,1,4.39.38c4.86,1.31,5.64,2.31,5.64,13v22.2a4.31,4.31,0,0,1-2.43,4.2c-3.25,1.85-10,2.68-14.88,2.68A48.1,48.1,0,0,1,26.28,85.56c-4.81-4.61-13.9-18-13.9-35.86,0-14.22,4.84-26.5,12.94-32.84C35,9.37,44.5,8.34,53.39,8.34c16.46,0,27.3,5.21,30.75,10.37a19.69,19.69,0,0,1,2.71,8.44c.13,1.1.27,2.34,1.36,2.34,1.5,0,1.62-1.43,1.62-3.17a136.62,136.62,0,0,1,.76-16.45c.1-.94.17-1.57.17-2.1,0-.93-.67-1.47-2-1.6A67.26,67.26,0,0,1,78.1,4.87,115.61,115.61,0,0,0,57.76,2.64c-10.22,0-23.47.94-35.45,8.29C8.34,19.61,0,35.81,0,54.27,0,71.92,8.57,85.53,15.9,91.82c10.84,9.34,25.59,14.07,43.84,14.07,8.21,0,19.94-1.55,28.29-5.93,1.81-1,1.93-1.53,1.93-7.43V77.91c0-5.45,0-9.39.26-13.56.28-4.7,1.43-6.47,4.6-7A19.52,19.52,0,0,1,98,56.92C98.87,56.92,99.5,56.41,99.5,55.71Zm63.84,35.18a11,11,0,0,1-3.38-.51c-1.91-.55-4.27-2.1-7.24-9.47-3.81-9.49-11.87-30.56-16.69-43.15-1.93-5-3.33-8.7-3.7-9.65-1-2.65-1.46-3.42-2.33-3.42s-1.28.78-2.33,3.69L107.8,82.77c-1.68,4.67-3.36,7.47-7,8-.71.09-1.92.17-2.49.17-.73,0-1.22.38-1.22,1C97.1,93,98.52,93,99.2,93c2.78,0,5.86-.12,7.89-.2l2-.06c.39,0,1.22,0,2.22.09,1.49.08,3.35.17,4.61.17,1.44,0,1.74-.62,1.74-1.13,0-.36-.16-1-1.3-1h-.88c-1.11,0-2.89-.57-2.89-2.11a18,18,0,0,1,1.2-5.73L119,67.58c.16-.4.33-.43.48-.43h18.81c.22,0,.27,0,.39.24l8.14,21.54a2,2,0,0,1,.07,1.47.67.67,0,0,1-.3.33c-.82.2-.94.73-.94,1,0,.89,1,.94,2.63,1l.41,0c3.9.11,8.79.17,13.76.17,1.44,0,2.18-.38,2.18-1.13S164.21,90.89,163.34,90.89ZM120.59,63.13l0-.05,7.7-23.64a2.86,2.86,0,0,1,.25-.59,3.83,3.83,0,0,1,.25.6l8.3,23.6s0,.05,0,.08ZM256,90.89a18.51,18.51,0,0,1-5.55-.77c-3.57-1.16-4.11-6-4.43-8.91l-5.86-53.77c-.14-1.4-.38-2.75-1.48-2.75s-1.44,1-1.7,1.64L211.59,80.51,185.21,26.25c-.42-.94-.88-1.56-1.7-1.56-1,0-1.29,1.35-1.39,2l-6.3,57.09,0,.32c-.33,3.15-.63,6.12-3.12,6.58a11,11,0,0,1-2.54.25c-.65,0-1.31.3-1.31.87,0,.81.64,1.22,1.92,1.22,1.51,0,3.75-.11,5.39-.18.94,0,1.68-.08,2-.08s.79,0,1.57.06c1.73.08,4.35.2,6.57.2.6,0,2,0,2-1.22,0-.49-.48-.87-1.12-.87a15.81,15.81,0,0,1-3.25-.43,2.37,2.37,0,0,1-1.92-2.29c0-1.5,0-3,.08-4.43l3.41-39.61c2.08,4.69,10.42,22.56,11.18,24.09l.14.28c2.39,4.81,8.16,16.39,10.1,20l.2.38c1.65,3.14,2,3.89,2.9,3.89s1.29-.7,2.67-3.63L234.2,43.34l4.1,44.09a6.33,6.33,0,0,1-.09,2.69,1,1,0,0,0-.88,1c0,.89,1,1.14,2.85,1.3,3.33.27,12.81.53,14.65.53,2,0,2.27-.85,2.27-1.22S256.9,90.89,256,90.89Zm18.09,1.87,1.48-.05c.78,0,1.88.05,3.4.12,3.45.15,9.23.41,18.58.41,3.47,0,4.52,0,5.23-2.64a86,86,0,0,0,1.17-8.75c0-.66,0-1.77-1-1.77s-1.09,1-1.22,1.71c-.61,3.53-1.62,5.18-3.75,6.08s-6.08.94-8.37.94c-8.77,0-9.65-1.21-9.9-6.89-.06-1.33,0-7.09,0-11.29,0-1.64,0-3.07,0-3.92V58.88c0-.17,0-.2.19-.2,1.49,0,10.28.18,12.68.45,3.14.32,3.92,1.6,4.27,2.81a8.85,8.85,0,0,1,.33,2.81c0,.75.41,1.24,1.06,1.24,1,0,1-1.33,1-2.13,0-.58.18-3.84.36-5.66a37.21,37.21,0,0,1,.55-3.91,8.53,8.53,0,0,0,.16-1.12c0-1-.61-1.14-.88-1.14-.52,0-.88.42-1.5,1.12l-.15.18c-.71.79-1.95.94-3.9,1.11-1.5.13-8.27.17-14.17.19a1.17,1.17,0,0,1-.05-.47V29.57c0-.37.08-.46.1-.46,1.11,0,10.67.09,12.15.27,4.63.51,5.42,1.51,6,2.76a9,9,0,0,1,.5,3c0,1.32.62,1.59,1.14,1.59s.87-.44,1.05-1.34c.12-.71.23-2.59.33-4.1.05-.8.09-1.49.12-1.8a25.14,25.14,0,0,1,.52-3.09,5,5,0,0,0,.19-1.14c0-1.08-.49-1.24-.78-1.24a2,2,0,0,0-.9.28,1.69,1.69,0,0,1-.45.18,24.37,24.37,0,0,1-3.75.43c-2,.09-19.61.09-20.36.09l-1.18,0c-1.9-.07-5.86-.23-8.88-.23-.55,0-1.85,0-1.85,1.15a1,1,0,0,0,1.14,1,17,17,0,0,1,2.94.25c2.52.54,3.3,1.59,3.49,4.69.17,2.83.17,5.33.17,19.21V66.71c0,8.35,0,15.57-.44,19.27-.38,2.79-.84,4.26-2.25,4.54a14.1,14.1,0,0,1-2.57.34,1,1,0,0,0-1.15,1c0,1.15,1.3,1.15,1.86,1.15C268.71,93,272.06,92.84,274.05,92.76ZM365.81,38.2a8.94,8.94,0,0,1,1.67.15c1.39.29,1.77.82,1.88,2.55s.1,4.64.1,12.68v9.1c0,4.82,0,12.11-.26,14.25-.21,1.53-.45,2.34-1.16,2.48a7.89,7.89,0,0,1-1.46.19.76.76,0,0,0-.84.75c0,.84.95.84,1.26.84,1.11,0,3.05-.08,4.21-.12l.85,0,.6,0c1.16,0,3.57.13,5.76.13,1.13,0,1.26-.59,1.26-.84a.77.77,0,0,0-.85-.75c-.42,0-1.52-.1-2.27-.2-1.19-.16-1.48-.92-1.64-2.46-.26-2.15-.26-9.44-.26-14.26V58.25c2,0,8.06,0,9.22.16A2.68,2.68,0,0,1,386.21,60a7.68,7.68,0,0,1,.28,1.6v.12a.81.81,0,0,0,.79.9c.8,0,.8-.92.8-1.41s.1-2.43.2-3.43.23-1.78.32-2.26a4.74,4.74,0,0,0,.1-.68c0-.76-.49-.84-.69-.84a1.08,1.08,0,0,0-.82.56l-.11.14c-.33.48-.77.64-2,.75-.71,0-1.41,0-2.3,0l-8.08.05V39.68c0-.12,0-.17,0-.13l7.95.15a3.62,3.62,0,0,1,3.14,1.41,5.33,5.33,0,0,1,.42,1.78c0,1,.66,1,.8,1,.29,0,.68-.15.84-.93.06-.42.13-1.45.19-2.37,0-.48.05-.88.07-1.07a13.91,13.91,0,0,1,.3-1.76,3.87,3.87,0,0,0,.11-.71c0-.53-.3-.9-.74-.9a1.21,1.21,0,0,0-.58.19,1,1,0,0,1-.28.14,6.91,6.91,0,0,1-1.57.16l-.59,0c-1.12.05-10.77.05-12.69.05l-.68,0c-1.1,0-3.4-.14-5.16-.14-.31,0-1.26,0-1.26.85A.78.78,0,0,0,365.81,38.2ZM848.12,12.57c-.77-3.14-1.82-7.44-1.82-9.74,0-.78,0-1.95-1.06-1.95a8.79,8.79,0,0,0-1.41.22,50.8,50.8,0,0,1-11.07,1H394.84c-1.54,0-6.39-.26-9.93-.62a11.75,11.75,0,0,1-4.23-1.1A3.4,3.4,0,0,0,379.33,0c-.72,0-1.14,1.1-1.62,2.54l-.06.18c-.14.6-2.79,11.85-2.79,13.23s.82,1.57,1.07,1.57c.76,0,1.26-.46,1.66-1.52a21.32,21.32,0,0,1,2.1-3.85c1.91-2.86,4.71-3.72,12.51-3.84l18.23-.25V61c0,11.84,0,29.75-.62,35-.56,4-1.23,6.17-3.33,6.58a18.79,18.79,0,0,1-3.69.5c-1.06,0-1.44.64-1.44,1.19,0,1.44,1.65,1.44,2.45,1.44,2.69,0,7.43-.19,10.26-.3l2.1-.08,1.5.05c2.81.11,8.67.33,14,.33,2,0,2.45-.78,2.45-1.44s-.38-1.19-1.44-1.19a53.65,53.65,0,0,1-5.62-.5c-3.3-.44-4.14-2.65-4.54-6.57-.64-5.27-.64-23.18-.64-35v-53L828,8.31c10.85.23,17.64,2.68,18.16,6.54l.12,1.39c.11,1.44.28,2.54,1.45,2.54.3,0,1.31-.15,1.31-2.07A28.26,28.26,0,0,0,848.12,12.57ZM453.8,31.49c.18-3.25.92-4.42,3-4.81a13.12,13.12,0,0,1,2.21-.27,1,1,0,0,0,1.17-1c0-1.16-1.33-1.16-1.9-1.16-2,0-5.39.13-7.44.22l-1.51.05-1.21,0c-1.95-.07-6-.23-9.11-.23-.57,0-1.9,0-1.9,1.16a1,1,0,0,0,1.17,1,16,16,0,0,1,3,.27c2.6.55,3.4,1.63,3.59,4.81.18,2.91.18,5.48.18,19.72V67.3c0,8.57,0,16-.45,19.78-.38,2.8-.87,4.37-2.31,4.66a14,14,0,0,1-2.65.36c-.81,0-1.17.49-1.17,1,0,1.16,1.33,1.16,1.89,1.16,2,0,5.4-.13,7.45-.22l1.51,0,1.08,0c2,.07,6.29.23,10.15.23,1.65,0,1.9-.73,1.9-1.16s-.3-1-1.16-1-2.74-.18-4.06-.36c-2.31-.31-2.9-1.87-3.19-4.66-.45-3.81-.45-11.21-.45-19.78V57.7a.45.45,0,0,1,0-.1s0,0,.11,0h38.73c.12,0,.12.08.12.12v9.6c0,8.57,0,16-.46,19.78-.39,2.86-.86,4.37-2.31,4.66a14.13,14.13,0,0,1-2.65.36c-.8,0-1.17.49-1.17,1,0,1.16,1.33,1.16,1.9,1.16,2,0,5.39-.13,7.44-.22l1.51,0,1.08,0c2.05.07,6.29.23,10.16.23,1.65,0,1.89-.73,1.89-1.16s-.3-1-1.16-1-2.74-.18-4.05-.36c-2.32-.31-2.91-1.87-3.19-4.66-.46-3.81-.46-11.21-.46-19.78V51.21c0-14.24,0-16.81.18-19.72.19-3.25.92-4.42,3-4.81a13.1,13.1,0,0,1,2.22-.27,1,1,0,0,0,1.16-1c0-1.16-1.33-1.16-1.89-1.16-2,0-5.39.13-7.44.22l-1.52.05-1.21,0c-1.95-.07-6-.23-9.11-.23-.57,0-1.89,0-1.89,1.16a1,1,0,0,0,1.16,1,16,16,0,0,1,3,.27c2.6.55,3.41,1.63,3.59,4.81.19,2.91.19,5.48.19,19.72v1.92a.36.36,0,0,1,0,.1.23.23,0,0,1-.11,0H453.65s0,0,0-.11V51.21C453.62,37,453.62,34.4,453.8,31.49ZM584.45,94.24c1.1,0,2.62,0,2.62-1.16a1.17,1.17,0,0,0-1.26-1,21.38,21.38,0,0,1-3.49-.27c-2.42-.39-6.19-1.48-10.9-6.45s-10-11.89-16.28-19.92l-2.45-3.14c7.44-7,10.9-13.68,10.9-21.17a16.48,16.48,0,0,0-6.48-12.78c-5-3.61-11.41-4.1-17-4.1-1.78,0-5.21.11-7.72.18-1.49.05-2.69.09-3.06.09l-1.21,0c-1.95-.07-6-.23-9.11-.23-.57,0-1.9,0-1.9,1.16a1.05,1.05,0,0,0,1.17,1,16,16,0,0,1,3,.27c2.86.6,3.43,2,3.59,4.81s.18,5.48.18,19.72V67.3c0,8.57,0,16-.45,19.78-.4,2.86-.86,4.37-2.31,4.66a14.13,14.13,0,0,1-2.65.36c-.81,0-1.17.49-1.17,1,0,1.16,1.33,1.16,1.9,1.16,2.33,0,6.74-.19,8.19-.25l.39,0,1.09,0c2,.07,6.29.23,10.15.23,1.65,0,1.89-.73,1.89-1.16s-.3-1-1.16-1-2.73-.18-4.05-.36c-2.31-.31-2.91-1.87-3.19-4.66-.45-3.81-.45-11.21-.45-19.78V65.11c0-.3.06-.3.19-.31l11.25.19a1,1,0,0,1,.84.38c.77,1,2,2.7,3.43,4.67,1.93,2.66,4.32,6,6.53,8.86l1.16,1.53c4.58,6,7.6,10,11.31,12,2.51,1.36,4.94,1.79,10,1.79ZM549.67,59.63a11.54,11.54,0,0,1-6.61,1.66c-3.87,0-8.07-.62-9.37-1.4a.77.77,0,0,1-.42-.73V29.27a.65.65,0,0,1,.42-.68,26.89,26.89,0,0,1,6-.53c9.63,0,15.37,6.67,15.37,17.85C555.05,52.19,553,57.32,549.67,59.63ZM728.18,24.27c-2.48,0-4.67.12-6.11.2-.75,0-1.32.07-1.66.07s-1,0-2-.07c-1.9-.08-4.78-.2-7.54-.2-.85,0-2.26,0-2.26,1.07,0,.71.39,1.07,1.16,1.07a23.22,23.22,0,0,1,4.37.45c2.48.64,3.15,2.33,3.24,8.27l1,45.33c-1.55-1.66-4.13-4.49-7.25-7.92-4.07-4.47-9.14-10-13.9-15.13C683.12,42.26,669.57,27.6,668.19,26c-.24-.23-.51-.54-.81-.87-1.18-1.32-2-2.18-2.69-2.18-1.23,0-1.44,1.54-1.44,5l-.09,52.38c0,8.35-.5,10.66-2.45,11.2a12.55,12.55,0,0,1-3.6.53c-.86,0-1.17.5-1.17,1,0,1.16,1.23,1.16,1.89,1.16,2.86,0,5.61-.13,7.25-.21l1.53-.06L668,94c1.72.09,4.6.22,8.34.22.62,0,2.08,0,2.08-1.16,0-.48-.31-1-1.17-1a20,20,0,0,1-4.44-.53c-2-.6-3.06-2.34-3.26-10.2l-1.15-42.61c2.77,3.1,12.48,14,23.06,25.36,9.71,10.45,22.87,23.89,23.85,24.79,5.08,5.07,6,6,7,6,1.11,0,1.25-.77,1.25-6.92l.19-53.57c0-5.56.37-7.15,3.05-7.72a7.61,7.61,0,0,1,2.08-.26c1,0,1.44-.54,1.44-1.07C730.25,24.27,729,24.27,728.18,24.27ZM780.48,81c-.94,0-1.12,1-1.26,1.73-.62,3.63-1.66,5.33-3.85,6.25s-6.24,1-8.6,1c-9,0-9.91-1.25-10.16-7.09-.07-1.37,0-7.28,0-11.59,0-1.69,0-3.15,0-4v-8c0-.19,0-.21.21-.21,1.53,0,10.56.18,13,.45,3.23.33,4,1.65,4.38,2.9a8.82,8.82,0,0,1,.35,2.89c0,.76.42,1.26,1.07,1.26,1.07,0,1.07-1.37,1.07-2.17,0-.6.18-3.95.37-5.82a40.22,40.22,0,0,1,.56-4,7.78,7.78,0,0,0,.17-1.14c0-1.06-.62-1.17-.89-1.17-.53,0-.91.43-1.53,1.15l-.16.18c-.67.75-1.73,1-4,1.14-1.54.14-8.49.18-14.55.2a1.33,1.33,0,0,1,0-.5V29.18c0-.4.08-.48.11-.48,1.09,0,10.95.09,12.47.27,4.76.53,5.57,1.56,6.13,2.85a9.23,9.23,0,0,1,.52,3.12c0,1.34.63,1.62,1.16,1.62s.89-.46,1.06-1.36c.13-.73.25-2.65.34-4.18.05-.84.1-1.56.13-1.89a25.49,25.49,0,0,1,.54-3.17,5.91,5.91,0,0,0,.19-1.17c0-1.09-.5-1.25-.79-1.25a1.88,1.88,0,0,0-.92.28,2.32,2.32,0,0,1-.47.19,24.93,24.93,0,0,1-3.84.44c-2.07.09-20.13.09-20.9.09l-1.22,0c-2-.07-6-.23-9.1-.23-.57,0-1.9,0-1.9,1.16a1,1,0,0,0,1.17,1,16,16,0,0,1,3,.27c2.86.6,3.42,2,3.59,4.81s.18,5.48.18,19.72V67.3c0,8.57,0,16-.45,19.78-.4,2.86-.86,4.37-2.31,4.66a14.13,14.13,0,0,1-2.65.36c-.81,0-1.17.49-1.17,1,0,1.16,1.33,1.16,1.9,1.16,2,0,5.38-.13,7.43-.22l1.52,0c.8,0,1.92,0,3.48.12,3.55.16,9.48.43,19.08.43,3.56,0,4.63,0,5.35-2.71a88.25,88.25,0,0,0,1.21-9C781.46,82.16,781.46,81,780.48,81ZM816,54.25l-2.55-2c-8.84-7.24-11-10.19-11-15,0-6.09,4.34-10.18,10.8-10.18,7.7,0,10.28,3.23,11,4.62a16.15,16.15,0,0,1,1.14,4.42c.08.66.2,1.57,1.16,1.57s1.07-1.59,1.07-2.54c0-4.87.23-7.77.32-9,0-.36,0-.58,0-.69,0-.95-.72-1.07-1.34-1.07a14.22,14.22,0,0,1-3.1-.45A36,36,0,0,0,815,23c-11.75,0-19.35,6.63-19.35,16.88,0,6.18,2,12,12,20.17l4.11,3.39c8.12,6.71,10.35,10.17,10.35,16.12s-4.34,11.72-12.63,11.72c-3.4,0-11.46-.87-13.1-9A15.89,15.89,0,0,1,796.2,79c0-.54,0-1.44-1.08-1.44S794,78.77,794,79.43c0,.28-.05.64-.08,1.07-.14,1.85-.38,4.94-.38,8.65,0,2.42.06,3.08,1.61,3.86a27.94,27.94,0,0,0,12.44,2.51,24.33,24.33,0,0,0,14-3.92,19.34,19.34,0,0,0,7.95-15.52C829.54,69,827.33,63.16,816,54.25ZM616.18,95.52c21.37,0,36.88-15.9,36.88-37.82,0-20.76-14.6-34.71-36.33-34.71-26.53,0-36.42,22.19-36.42,36.17C580.31,76.68,591.53,95.52,616.18,95.52Zm9.22-66.76c9.76,3.85,18,14,18,31.5,0,21-10.51,27.77-18,29.93ZM617.16,27a25.35,25.35,0,0,1,7.24,1.39H623V90.75a24.93,24.93,0,0,1-4.39.43c-.51,0-1-.05-1.49-.07Zm-8.68.92A28.92,28.92,0,0,1,614.8,27V90.9a26.82,26.82,0,0,1-6.32-1.65Zm-2.36.74v59.5c-10-5.19-16.27-16.73-16.27-31.57C589.85,42.45,595.89,32.47,606.12,28.67ZM363.48,58.47c0-11.86-8.34-19.83-20.74-19.83C327.59,38.64,322,51.31,322,59.29c0,10,6.4,20.76,20.48,20.76C354.63,80.05,363.48,71,363.48,58.47ZM348.33,42.6c5.12,2.38,9.32,8,9.32,17.32,0,11.07-5.2,15.07-9.32,16.51Zm-4.94-1.29a14.37,14.37,0,0,1,3.57.74V76.83a13.65,13.65,0,0,1-3.14.39l-.43,0Zm-6,34.53c-5.92-2.75-9.69-9.39-9.69-18,0-8.19,3.61-13.88,9.69-15.83ZM342,77.12a15,15,0,0,1-3.24-.73V41.65a16.73,16.73,0,0,1,3.24-.37Zm324.23,50.5h2.29v6h.92v-6h2.28v-.8h-5.49Zm9.58,4.93-2-5.73h-1.31v6.78h.87v-4c0-.16,0-.41,0-.75s0-.59,0-.76v-.2l1.94,5.72h.92l1.93-5.72c0,.36,0,.71,0,1s0,.55,0,.68v4h.88v-6.78h-1.31ZM255.62,167.76c-.73,0-.92.36-1.19,1.82a15.12,15.12,0,0,1-3.1,6c-3.66,4.21-8.59,5.12-16.72,5.12-12.23,0-28.76-10.78-28.76-32.53,0-8.87,1.73-17.55,8.4-23.67,4-3.65,9.22-5.66,17.17-5.66,8.4,0,15.52,2.47,18.54,5.66a13,13,0,0,1,3.56,8.41c0,1.28.18,2,.91,2s1-.73,1.1-2.1c.18-1.83.09-6.86.27-9.87.18-3.2.45-4.3.45-5,0-.55-.36-1-1.36-1.09-2.74-.28-5.66-1.1-9.14-1.56a91.43,91.43,0,0,0-13.24-.91c-13.6,0-22.27,3.65-28.85,9.68-8.77,8.05-10.69,18.83-10.69,25,0,8.87,2.38,19.1,11.33,27,8.31,7.22,18.81,10,31.32,10,5.84,0,12.79-.64,16.44-2.1a3.21,3.21,0,0,0,2.37-2.65,87.58,87.58,0,0,0,2-12.15C256.44,168.39,256.25,167.76,255.62,167.76ZM477.1,190.93c-3.32,1.38-10.86.64-13.4.16-3.19-.61-7.55-3.2-11.85-6.29l-7.63-6.32a30.56,30.56,0,0,0,13.24-25.06c0-17.82-12.63-28.86-30.82-28.86-22.29,0-31.2,17.06-31.2,29.48,0,13.7,8.68,30.23,31,30.23a38.46,38.46,0,0,0,11.95-2l9.4,4.48c6.77,3.8,10.13,4.8,12.8,5.5a57.64,57.64,0,0,0,14.13.25l1.15-.35,1.14-.6a6.92,6.92,0,0,0,.69-.52l.29-.31s-.09-.07-.15-.07A2.61,2.61,0,0,0,477.1,190.93Zm-47.72-9.07c-12.91,0-24.45-10.59-24.45-29.69,0-18.61,9.38-25.35,19.88-25.35,11.07,0,23.1,9.3,23.1,28.72C447.91,179.05,435.79,181.86,429.38,181.86ZM519,125.63c-2.9,0-7.57.23-8.46.23-.07,0-4.75-.23-8.53-.23-1,0-1.56.15-1.56.68s.45.69,1.26.69a14.13,14.13,0,0,1,2.67.23c2.45.53,3,1.75,3.19,4.34.15,2.44.15,4.57.15,16.14v9.52c0,7.85-.22,14.7-4.3,18.88a14.34,14.34,0,0,1-10.25,4.12,13.45,13.45,0,0,1-9.27-3.13c-3.64-3-5.78-7.68-5.78-18.73V147.71c0-11.57,0-13.7.14-16.14.15-2.66.75-4,2.75-4.34a11,11,0,0,1,2.15-.23c.74,0,1.19-.15,1.19-.69s-.52-.68-1.63-.68c-2.68,0-7.35.23-9.13.23-2.23,0-6.91-.23-10.83-.23-1.12,0-1.64.15-1.64.68s.45.69,1.26.69a15.08,15.08,0,0,1,2.9.23c2.45.53,3,1.75,3.19,4.34.15,2.44.15,4.57.15,16.14v11.12c0,11,2.82,16.68,6.6,20.18,5.42,5,12.54,5.26,16.47,5.26,4.83,0,10.17-.85,15.43-5.49,6.24-5.48,7.06-14.47,7.06-22.92v-8.15c0-11.57,0-13.7.14-16.14.15-2.66.75-4,2.75-4.34a11.11,11.11,0,0,1,2.16-.23c.89,0,1.33-.15,1.33-.69S520.07,125.63,519,125.63Zm42.05,46c-.52,0-.67.3-.82,1.14-.52,3.11-1.41,4.72-3.34,5.63s-5,.92-7,.92c-7.56,0-8.74-1.15-8.89-6.4-.08-2.21,0-9.22,0-11.81v-6c0-.46.07-.77.45-.77,1.77,0,9.11.08,10.52.23,2.73.31,3.78,1.45,4.14,3a19.11,19.11,0,0,1,.3,2.75.6.6,0,0,0,.67.68c.66,0,.66-.84.66-1.44s.23-3.59.3-5.11c.3-3.88.59-5.1.59-5.56s-.22-.61-.51-.61-.67.39-1.19,1-1.78,1-3.56,1.14-10.22.15-11.85.15c-.45,0-.52-.31-.52-.84V130.43c0-.54.15-.77.52-.77,1.48,0,9.26.16,10.52.31,3.71.46,4.45,1.37,5,2.74a8.15,8.15,0,0,1,.45,2.74c0,.69.14,1.07.67,1.07s.66-.46.74-.84c.14-.91.29-4.26.36-5,.23-3.5.6-4.41.6-4.94s-.07-.69-.45-.69a7.3,7.3,0,0,0-1.18.3,26.74,26.74,0,0,1-3.18.46c-1.42.08-16.16.08-18.53.08-1,0-2.74-.08-4.67-.15s-4-.08-6-.08c-1.11,0-1.63.15-1.63.68s.44.69,1.26.69a15,15,0,0,1,2.89.23c2.45.53,3,1.75,3.18,4.34.16,2.44.16,4.57.16,16.14v13.4c0,7,0,13-.38,16.22-.29,2.21-.66,3.89-2.15,4.19a11.23,11.23,0,0,1-2.67.31c-.88,0-1.18.23-1.18.61,0,.53.52.76,1.49.76,1.48,0,3.4-.15,5.11-.15s3.4-.08,4.22-.08c2.22,0,4.52.08,7.7.23s7.27.22,12.82.22c2.82,0,3.48,0,4-2a59.47,59.47,0,0,0,1-8.45C561.66,172.23,561.66,171.63,561.08,171.63Zm29.38-23.16-2-1.6c-5.92-4.79-7.56-7.46-7.56-11,0-4.57,3.21-7.84,8.48-7.84a8.83,8.83,0,0,1,7.77,3.73,9.66,9.66,0,0,1,1.85,5c0,.92.22,1.37.71,1.37s.79-.6.79-2.28c0-5.94.28-8.15.28-9.14,0-.53-.35-.76-1-.91a32.07,32.07,0,0,0-9.47-1.3c-9.91,0-16.46,6-16.46,14.4,0,6.16,2.7,11.49,10.54,18l3.28,2.74c5.92,4.95,7,8.46,7,12.19,0,4-3.14,8.68-9.55,8.68-4.43,0-8.63-2.06-10.2-7.69a17.44,17.44,0,0,1-.64-3.89c0-.61-.06-1.29-.71-1.29s-.78.84-.85,2-.36,5.79-.36,10c0,1.67.21,2.05,1.35,2.59a23.44,23.44,0,0,0,10.41,2,19.66,19.66,0,0,0,11.33-3.13,15.67,15.67,0,0,0,6.7-13.25C602.15,160.65,599.08,155.4,590.46,148.47Zm67.29-23.38a17.33,17.33,0,0,0-2,.39,33.11,33.11,0,0,1-5,.38H622.15a71.69,71.69,0,0,1-7.24-.38c-1.81-.16-2.53-.92-3.11-.92-.43,0-.65.46-.87,1.45-.14.61-1.52,7.54-1.52,8.76,0,.83.15,1.21.66,1.21s.64-.3.79-.91a9.15,9.15,0,0,1,1.23-2.66c1.09-1.68,2.82-2.06,7-2.21l10.78-.31v31.22c0,7,0,13-.36,16.22-.21,2.21-.65,3.89-2.1,4.19a10.79,10.79,0,0,1-2.6.31c-.87,0-1.16.23-1.16.61,0,.53.5.76,1.45.76,2.89,0,7.45-.23,9.11-.23,2,0,6.59.23,11.36.23.8,0,1.38-.23,1.38-.76,0-.38-.36-.61-1.15-.61a27.69,27.69,0,0,1-3.7-.31c-2.17-.3-2.6-2-2.82-4.11-.36-3.28-.36-9.29-.36-16.3V129.89l9.11.23c6.44.15,8.4,2.29,8.55,4.26l.06.84c.08,1.15.22,1.53.8,1.53.43,0,.58-.46.65-1.22,0-2,.22-7.24.22-8.84C658.33,125.55,658.25,125.09,657.75,125.09ZM294.32,127.6c-20.64,0-28.33,17.25-28.33,28.13,0,13.62,8.74,28.27,27.9,28.27,16.62,0,28.67-12.36,28.67-29.39C322.56,138.45,311.21,127.6,294.32,127.6Zm-7.26,50.67c-8.07-3.75-13.2-12.79-13.2-24.52,0-11.16,4.92-18.91,13.2-21.57Zm6.28,1.74a20.62,20.62,0,0,1-4.41-1V131.69a23.07,23.07,0,0,1,4.41-.5Zm6.73-.39a18.71,18.71,0,0,1-4.28.53c-.2,0-.38,0-.58,0V131.24a19.11,19.11,0,0,1,4.86,1Zm1.87-.56V133c7,3.24,12.69,10.88,12.69,23.59C314.63,171.66,307.54,177.11,301.94,179.06Zm88-51.33c-3.62,0-6.41.23-7.22.23-1.55,0-5.09-.23-8.92-.23-1.1,0-1.92.08-1.92.68s.3.69,1.18.69a11.62,11.62,0,0,1,3.91.46c1.77.76,2.43.1,2.51,4.75l.73,34.19h-.36c-1.26-1.22-11.21-12.18-16.22-17.36-10.76-11-22-23.23-22.84-24.22a14,14,0,0,0-2.11-2.16l-3.73-4-.44,10.58,2.48,3.5L336.41,172c-.08,6.63-.37,8.84-2.29,9.44a12.48,12.48,0,0,1-3.32.39c-.73,0-1.17.15-1.17.61,0,.68.66.76,1.62.76,3.83,0,7.3-.23,8-.23,1.4,0,4.35.23,9.14.23,1,0,1.69-.15,1.69-.76,0-.46-.44-.61-1.25-.61a11.35,11.35,0,0,1-3.84-.54c-1.46-.53-2.43-2.51-2.57-8.45l-.81-31.75h.22c1.32,1.44,9.5,10.74,17.54,19,7.66,7.84,17.09,17.82,21.73,22.39.81.84,1.7,1.67,2.51,1.67s1-.69,1-2.36l.81-48.05c.08-4.26.67-3.76,2.73-4.37a7.7,7.7,0,0,1,2.21-.23q1.32,0,1.32-.69C391.6,127.81,390.87,127.73,389.91,127.73Z" style="fill: #fff"/>
    </g>
  </g>
</svg>
